<?xml version="1.0" encoding="utf-8"?>
<!-- Generator: Adobe Illustrator 24.1.2, SVG Export Plug-In . SVG Version: 6.00 Build 0)  -->
<svg version="1.1" id="Layer_1" xmlns="http://www.w3.org/2000/svg" xmlns:xlink="http://www.w3.org/1999/xlink" x="0px" y="0px"
	 viewBox="0 0 288.03 140.66" style="enable-background:new 0 0 288.03 140.66;" xml:space="preserve">
<g>
	<g>
		<path d="M135.47,38.25c0-1.05,0.19-2.1,0.56-3.14c0.38-1.04,0.93-1.98,1.66-2.81c0.73-0.83,1.62-1.5,2.67-2.01
			s2.24-0.77,3.57-0.77c1.59,0,2.96,0.35,4.09,1.05c1.13,0.7,1.99,1.62,2.56,2.75l-2.16,1.46c-0.25-0.53-0.54-0.97-0.89-1.33
			s-0.72-0.65-1.13-0.86s-0.84-0.36-1.28-0.45s-0.87-0.13-1.28-0.13c-0.92,0-1.72,0.19-2.41,0.56c-0.69,0.37-1.27,0.86-1.73,1.47
			c-0.47,0.61-0.82,1.29-1.06,2.05c-0.24,0.76-0.36,1.51-0.35,2.27c0,0.85,0.14,1.67,0.42,2.44s0.67,1.45,1.17,2.04
			s1.1,1.06,1.79,1.41c0.69,0.35,1.44,0.53,2.27,0.53c0.43,0,0.87-0.05,1.32-0.16c0.45-0.11,0.89-0.28,1.3-0.52
			c0.42-0.24,0.8-0.54,1.16-0.9c0.35-0.36,0.64-0.8,0.87-1.31l2.29,1.3c-0.28,0.66-0.67,1.24-1.18,1.74s-1.08,0.92-1.72,1.27
			c-0.64,0.35-1.32,0.61-2.03,0.79c-0.71,0.18-1.42,0.27-2.1,0.27c-1.23,0-2.36-0.26-3.37-0.78c-1.02-0.52-1.9-1.21-2.64-2.05
			s-1.32-1.8-1.73-2.88C135.68,40.47,135.47,39.37,135.47,38.25z"/>
		<path d="M157.21,47.34c-0.62,0-1.2-0.1-1.74-0.31c-0.53-0.2-0.99-0.49-1.38-0.85c-0.39-0.36-0.69-0.79-0.91-1.28
			c-0.22-0.49-0.33-1.03-0.33-1.6c0-0.61,0.13-1.16,0.39-1.65s0.63-0.92,1.12-1.28c0.48-0.36,1.06-0.64,1.72-0.84s1.4-0.3,2.2-0.3
			c0.61,0,1.21,0.05,1.8,0.16s1.12,0.25,1.6,0.43v-0.89c0-0.95-0.27-1.69-0.82-2.23c-0.54-0.53-1.32-0.8-2.34-0.8
			c-0.69,0-1.37,0.13-2.03,0.38c-0.66,0.26-1.35,0.62-2.05,1.1l-0.84-1.72c1.66-1.12,3.38-1.68,5.17-1.68
			c1.77,0,3.15,0.45,4.14,1.35c0.99,0.9,1.48,2.2,1.48,3.89l0.01,4.65c0,0.57,0.24,0.87,0.71,0.89v2.31
			c-0.26,0.05-0.49,0.08-0.68,0.1c-0.19,0.02-0.37,0.03-0.55,0.03c-0.53,0-0.93-0.13-1.22-0.39c-0.29-0.26-0.47-0.6-0.53-1.01
			l-0.07-0.81c-0.57,0.76-1.28,1.34-2.13,1.74C159.08,47.13,158.18,47.34,157.21,47.34z M157.94,45.34c0.66,0,1.28-0.12,1.86-0.36
			s1.04-0.57,1.37-1c0.34-0.3,0.52-0.61,0.52-0.94v-1.7c-0.46-0.18-0.95-0.32-1.47-0.42s-1.02-0.15-1.51-0.15
			c-0.97,0-1.76,0.21-2.38,0.63c-0.61,0.42-0.92,0.97-0.92,1.66c0,0.64,0.24,1.18,0.72,1.61C156.6,45.13,157.21,45.34,157.94,45.34z
			"/>
		<path d="M179.72,47.06h-2.71L177,39.85c0-1.21-0.2-2.1-0.58-2.65c-0.39-0.55-0.96-0.82-1.71-0.82c-0.39,0-0.79,0.07-1.18,0.22
			s-0.76,0.36-1.11,0.63c-0.34,0.27-0.65,0.59-0.92,0.96s-0.48,0.78-0.63,1.22l0.01,7.66h-2.71l-0.02-12.88h2.46v2.59
			c0.49-0.87,1.2-1.56,2.14-2.06c0.93-0.5,1.97-0.75,3.1-0.75c0.77,0,1.4,0.14,1.9,0.42c0.49,0.28,0.88,0.66,1.17,1.14
			s0.49,1.04,0.6,1.67c0.12,0.63,0.17,1.3,0.17,2.01L179.72,47.06z"/>
		<path d="M186.8,47.3c-0.62,0-1.2-0.1-1.74-0.31c-0.53-0.2-0.99-0.49-1.38-0.85c-0.39-0.36-0.69-0.79-0.91-1.28
			c-0.22-0.49-0.33-1.03-0.33-1.6c0-0.61,0.13-1.16,0.39-1.65s0.63-0.92,1.12-1.28c0.48-0.36,1.06-0.64,1.72-0.84s1.4-0.3,2.2-0.3
			c0.61,0,1.21,0.05,1.8,0.16s1.12,0.25,1.6,0.43v-0.89c0-0.95-0.27-1.69-0.82-2.23c-0.54-0.53-1.32-0.8-2.34-0.8
			c-0.69,0-1.37,0.13-2.03,0.38c-0.66,0.26-1.35,0.62-2.05,1.1l-0.84-1.72c1.66-1.12,3.38-1.68,5.17-1.68
			c1.77,0,3.15,0.45,4.14,1.35c0.99,0.9,1.48,2.2,1.48,3.89l0.01,4.65c0,0.57,0.24,0.87,0.71,0.89v2.31
			c-0.26,0.05-0.49,0.08-0.68,0.1c-0.19,0.02-0.37,0.03-0.55,0.03c-0.53,0-0.93-0.13-1.22-0.39c-0.29-0.26-0.47-0.6-0.53-1.01
			l-0.07-0.81c-0.57,0.76-1.28,1.34-2.13,1.74C188.68,47.1,187.77,47.3,186.8,47.3z M187.54,45.31c0.66,0,1.28-0.12,1.86-0.36
			s1.04-0.57,1.37-1c0.34-0.3,0.52-0.61,0.52-0.94v-1.7c-0.46-0.18-0.95-0.32-1.47-0.42s-1.02-0.15-1.51-0.15
			c-0.97,0-1.76,0.21-2.38,0.63c-0.61,0.42-0.92,0.97-0.92,1.66c0,0.64,0.24,1.18,0.72,1.61C186.19,45.09,186.8,45.31,187.54,45.31z
			"/>
		<path d="M202.92,47.28c-0.87,0-1.67-0.17-2.41-0.53c-0.74-0.35-1.38-0.83-1.92-1.44c-0.54-0.61-0.97-1.32-1.27-2.13
			c-0.31-0.81-0.46-1.69-0.46-2.62c0-0.9,0.14-1.75,0.43-2.55s0.69-1.5,1.2-2.11c0.52-0.61,1.12-1.09,1.82-1.44
			c0.7-0.35,1.46-0.53,2.3-0.53c1.03,0,1.94,0.25,2.73,0.75s1.41,1.14,1.85,1.91l-0.01-7.53h2.71l0.02,14.77
			c0,0.31,0.05,0.53,0.16,0.66s0.3,0.21,0.58,0.22v2.31c-0.28,0.05-0.51,0.08-0.68,0.1c-0.17,0.02-0.32,0.02-0.43,0.03
			c-0.54,0-0.99-0.14-1.33-0.42c-0.35-0.28-0.53-0.64-0.57-1.08l-0.05-0.96c-0.48,0.8-1.12,1.44-1.94,1.9
			C204.83,47.05,203.92,47.28,202.92,47.28z M203.59,44.97c0.39,0,0.79-0.07,1.18-0.2s0.75-0.31,1.08-0.54s0.61-0.5,0.85-0.81
			s0.41-0.65,0.5-1.01v-3.37c-0.15-0.41-0.36-0.79-0.63-1.13s-0.58-0.64-0.92-0.89c-0.35-0.25-0.71-0.43-1.1-0.57
			c-0.39-0.13-0.78-0.2-1.17-0.2c-0.54,0-1.04,0.12-1.49,0.37c-0.45,0.25-0.84,0.58-1.17,0.99s-0.59,0.88-0.77,1.4
			c-0.19,0.53-0.28,1.07-0.28,1.63c0,0.59,0.1,1.15,0.31,1.67c0.2,0.52,0.49,0.98,0.85,1.38c0.36,0.39,0.78,0.7,1.24,0.93
			C202.54,44.85,203.04,44.97,203.59,44.97z"/>
		<path d="M213.84,32.03v-2.98h2.71v2.98H213.84z M213.86,47.02l-0.02-12.88h2.71l0.02,12.88H213.86z"/>
		<path d="M223.78,47.26c-0.62,0-1.2-0.1-1.74-0.31c-0.53-0.2-0.99-0.49-1.38-0.85c-0.39-0.36-0.69-0.79-0.91-1.28
			c-0.22-0.49-0.33-1.03-0.34-1.6c0-0.61,0.13-1.16,0.39-1.65s0.63-0.92,1.12-1.28c0.48-0.36,1.06-0.64,1.72-0.84s1.4-0.3,2.2-0.3
			c0.61,0,1.21,0.05,1.8,0.16s1.12,0.25,1.6,0.43v-0.89c0-0.95-0.27-1.69-0.82-2.23c-0.54-0.53-1.32-0.8-2.34-0.8
			c-0.69,0-1.37,0.13-2.03,0.38c-0.66,0.26-1.35,0.62-2.05,1.1l-0.84-1.72c1.66-1.12,3.38-1.68,5.17-1.68
			c1.77,0,3.15,0.45,4.14,1.35c0.99,0.9,1.48,2.2,1.48,3.89l0.01,4.65c0,0.57,0.24,0.87,0.71,0.89v2.31
			c-0.26,0.05-0.49,0.08-0.68,0.1c-0.19,0.02-0.37,0.02-0.55,0.03c-0.53,0-0.93-0.13-1.22-0.39c-0.29-0.26-0.46-0.6-0.53-1.01
			l-0.07-0.81c-0.57,0.76-1.28,1.34-2.13,1.74C225.66,47.05,224.75,47.26,223.78,47.26z M224.52,45.26c0.66,0,1.28-0.12,1.86-0.36
			s1.04-0.57,1.37-1c0.34-0.3,0.52-0.61,0.52-0.94v-1.7c-0.46-0.18-0.95-0.32-1.47-0.42s-1.02-0.15-1.51-0.15
			c-0.97,0-1.76,0.21-2.38,0.63c-0.61,0.42-0.92,0.97-0.92,1.66c0,0.64,0.24,1.18,0.72,1.61C223.17,45.05,223.78,45.26,224.52,45.26
			z"/>
		<path d="M246.3,46.98h-2.71l-0.01-7.21c0-1.21-0.2-2.1-0.58-2.65c-0.39-0.55-0.96-0.82-1.71-0.82c-0.39,0-0.79,0.07-1.18,0.22
			s-0.76,0.36-1.11,0.63c-0.34,0.27-0.65,0.59-0.92,0.96s-0.48,0.78-0.63,1.22l0.01,7.66h-2.71l-0.02-12.88h2.46v2.59
			c0.49-0.87,1.2-1.56,2.14-2.06s1.97-0.75,3.1-0.75c0.77,0,1.4,0.14,1.9,0.42c0.49,0.28,0.88,0.66,1.17,1.14s0.49,1.04,0.61,1.67
			c0.11,0.63,0.17,1.3,0.17,2.01L246.3,46.98z"/>
		<path d="M135.51,69.59c0-1.05,0.19-2.1,0.56-3.14c0.38-1.04,0.93-1.98,1.66-2.81c0.73-0.83,1.62-1.5,2.67-2.01
			s2.24-0.77,3.57-0.77c1.59,0,2.95,0.35,4.09,1.05c1.13,0.7,1.99,1.62,2.56,2.75l-2.17,1.46c-0.25-0.53-0.54-0.97-0.89-1.33
			s-0.72-0.65-1.13-0.86s-0.84-0.36-1.28-0.45s-0.87-0.13-1.28-0.13c-0.92,0-1.72,0.19-2.41,0.56c-0.69,0.37-1.27,0.86-1.73,1.47
			c-0.47,0.61-0.82,1.29-1.06,2.05c-0.24,0.76-0.36,1.51-0.35,2.27c0,0.85,0.14,1.67,0.42,2.44c0.28,0.77,0.67,1.45,1.17,2.04
			c0.5,0.59,1.1,1.06,1.79,1.41c0.69,0.35,1.45,0.53,2.27,0.53c0.43,0,0.87-0.05,1.32-0.16c0.45-0.11,0.89-0.28,1.3-0.52
			c0.42-0.24,0.8-0.54,1.16-0.9c0.35-0.36,0.64-0.8,0.87-1.31l2.29,1.3c-0.28,0.66-0.67,1.24-1.18,1.74s-1.08,0.92-1.72,1.27
			s-1.32,0.61-2.03,0.79c-0.71,0.18-1.42,0.27-2.11,0.27c-1.23,0-2.36-0.26-3.37-0.78c-1.02-0.52-1.9-1.21-2.64-2.05
			c-0.74-0.84-1.32-1.8-1.73-2.88C135.72,71.8,135.51,70.71,135.51,69.59z"/>
		<path d="M159.41,78.67c-1.02,0-1.93-0.18-2.75-0.54c-0.81-0.36-1.51-0.84-2.08-1.45s-1.02-1.32-1.33-2.13s-0.47-1.66-0.47-2.55
			s0.15-1.74,0.46-2.55c0.31-0.81,0.76-1.52,1.34-2.13s1.28-1.09,2.09-1.46c0.81-0.36,1.72-0.54,2.72-0.55c1,0,1.91,0.18,2.72,0.54
			s1.51,0.84,2.09,1.45s1.03,1.32,1.34,2.13s0.47,1.66,0.47,2.55s-0.15,1.74-0.46,2.55c-0.31,0.81-0.76,1.52-1.34,2.13
			s-1.28,1.09-2.09,1.46C161.32,78.49,160.41,78.67,159.41,78.67z M155.56,72.03c0,0.62,0.1,1.2,0.3,1.72
			c0.2,0.53,0.47,0.98,0.81,1.37c0.35,0.39,0.75,0.69,1.22,0.91s0.97,0.33,1.51,0.33s1.05-0.11,1.51-0.33
			c0.47-0.22,0.87-0.53,1.22-0.92c0.34-0.39,0.61-0.85,0.81-1.38s0.29-1.1,0.29-1.72c0-0.61-0.1-1.18-0.3-1.71s-0.47-1-0.81-1.39
			c-0.35-0.39-0.75-0.7-1.22-0.92s-0.97-0.33-1.51-0.33c-0.53,0-1.02,0.12-1.49,0.35c-0.47,0.23-0.87,0.54-1.22,0.94
			c-0.34,0.39-0.62,0.86-0.82,1.39C155.66,70.85,155.56,71.42,155.56,72.03z"/>
		<path d="M180.46,78.4h-2.71l-0.01-7.21c0-1.21-0.2-2.1-0.58-2.65c-0.39-0.55-0.96-0.82-1.71-0.82c-0.39,0-0.79,0.07-1.18,0.22
			s-0.76,0.36-1.11,0.63s-0.65,0.59-0.92,0.96s-0.48,0.78-0.63,1.22l0.01,7.66h-2.71l-0.02-12.88h2.46v2.59
			c0.49-0.87,1.2-1.56,2.14-2.06s1.97-0.75,3.1-0.75c0.77,0,1.4,0.14,1.9,0.42c0.49,0.28,0.88,0.66,1.17,1.14
			c0.29,0.48,0.49,1.04,0.61,1.67s0.17,1.3,0.17,2.01L180.46,78.4z"/>
		<path d="M188.75,78.64c-1.03,0-2.06-0.17-3.09-0.5c-1.03-0.34-1.91-0.81-2.65-1.44l1.08-1.72c0.77,0.56,1.53,0.98,2.29,1.27
			c0.76,0.29,1.53,0.43,2.32,0.43c0.8,0,1.44-0.16,1.91-0.47s0.7-0.76,0.7-1.33c0-0.54-0.26-0.93-0.79-1.18s-1.35-0.52-2.46-0.81
			c-0.8-0.21-1.49-0.42-2.07-0.61c-0.58-0.2-1.04-0.43-1.4-0.69s-0.62-0.57-0.79-0.91c-0.16-0.34-0.25-0.76-0.25-1.26
			c0-0.66,0.13-1.24,0.38-1.75s0.61-0.94,1.06-1.29s0.98-0.62,1.59-0.8s1.26-0.27,1.97-0.27c0.97,0,1.87,0.15,2.71,0.44
			c0.84,0.29,1.58,0.72,2.24,1.28l-1.16,1.63c-1.2-0.95-2.47-1.42-3.82-1.42c-0.69,0-1.27,0.15-1.74,0.43
			c-0.47,0.29-0.7,0.74-0.7,1.37c0,0.26,0.05,0.48,0.15,0.66c0.1,0.18,0.26,0.34,0.48,0.47c0.22,0.13,0.51,0.25,0.86,0.36
			s0.79,0.22,1.32,0.36c0.87,0.21,1.62,0.43,2.25,0.64s1.15,0.46,1.56,0.75s0.71,0.62,0.91,1.01s0.3,0.85,0.3,1.39
			c0,1.23-0.46,2.2-1.39,2.92C191.6,78.28,190.34,78.63,188.75,78.64z"/>
		<path d="M203.88,77.71c-0.34,0.16-0.82,0.35-1.43,0.56c-0.61,0.21-1.26,0.31-1.95,0.31c-0.43,0-0.83-0.06-1.21-0.17
			s-0.71-0.29-1-0.52c-0.29-0.23-0.51-0.53-0.68-0.9c-0.16-0.37-0.25-0.82-0.25-1.34l-0.01-8.05h-1.7v-2.09h1.7l-0.01-4.24h2.71
			l0.01,4.24h2.81v2.09h-2.81l0.01,7.19c0.03,0.46,0.18,0.79,0.43,1c0.26,0.2,0.57,0.31,0.95,0.31c0.38,0,0.74-0.07,1.08-0.2
			c0.35-0.13,0.6-0.24,0.76-0.32L203.88,77.71z"/>
		<path d="M213.34,67.82c-1.05,0.03-1.98,0.28-2.79,0.73c-0.81,0.45-1.39,1.1-1.73,1.93l0.01,7.88h-2.71l-0.02-12.88h2.51v2.88
			c0.44-0.89,1.02-1.6,1.73-2.13c0.71-0.53,1.48-0.83,2.3-0.88c0.16,0,0.3,0,0.41,0s0.2,0.01,0.28,0.02L213.34,67.82z"/>
		<path d="M219.65,78.6c-1.35,0-2.36-0.44-3.05-1.31c-0.69-0.88-1.04-2.19-1.04-3.93l-0.01-7.88h2.71l0.01,7.34
			c0,2.31,0.83,3.47,2.47,3.47c0.77,0,1.5-0.24,2.19-0.72s1.22-1.17,1.6-2.07l-0.01-8.03h2.71l0.01,9.68c0,0.31,0.05,0.53,0.16,0.66
			c0.11,0.13,0.3,0.2,0.58,0.22v2.31c-0.28,0.05-0.51,0.08-0.69,0.1c-0.18,0.02-0.35,0.02-0.52,0.03c-0.49,0-0.91-0.13-1.26-0.41
			s-0.53-0.62-0.54-1.05l-0.05-1.28c-0.57,0.94-1.32,1.65-2.24,2.13C221.76,78.35,220.75,78.6,219.65,78.6z"/>
		<path d="M230.19,71.89c0-0.9,0.15-1.76,0.46-2.56c0.31-0.8,0.76-1.51,1.34-2.12s1.28-1.09,2.1-1.44s1.74-0.53,2.76-0.53
			c1.33,0,2.47,0.29,3.44,0.87c0.96,0.58,1.68,1.36,2.16,2.32l-2.63,0.84c-0.31-0.54-0.73-0.96-1.26-1.27
			c-0.53-0.3-1.11-0.45-1.75-0.45c-0.54,0-1.05,0.11-1.51,0.32c-0.47,0.21-0.87,0.51-1.22,0.9c-0.34,0.39-0.61,0.84-0.81,1.37
			c-0.2,0.53-0.29,1.11-0.29,1.75c0,0.62,0.1,1.2,0.31,1.74c0.21,0.53,0.48,1,0.84,1.39c0.35,0.39,0.76,0.7,1.23,0.92
			s0.96,0.33,1.49,0.33c0.33,0,0.66-0.05,0.99-0.14s0.63-0.22,0.9-0.38c0.27-0.16,0.51-0.35,0.71-0.57c0.2-0.21,0.36-0.44,0.46-0.69
			l2.66,0.79c-0.43,0.97-1.14,1.76-2.14,2.38s-2.18,0.93-3.54,0.93c-1,0-1.91-0.18-2.73-0.54c-0.82-0.36-1.52-0.85-2.11-1.46
			c-0.58-0.61-1.04-1.32-1.36-2.13C230.35,73.65,230.19,72.79,230.19,71.89z"/>
		<path d="M252.48,77.65c-0.34,0.16-0.82,0.35-1.43,0.56s-1.25,0.31-1.94,0.31c-0.43,0-0.83-0.06-1.21-0.17s-0.71-0.29-1-0.52
			c-0.29-0.23-0.51-0.53-0.68-0.9c-0.16-0.37-0.25-0.82-0.25-1.34l-0.01-8.05h-1.7v-2.09h1.7v-4.24h2.71v4.23h2.81v2.09h-2.81
			l0.01,7.19c0.03,0.46,0.18,0.79,0.43,1c0.25,0.2,0.57,0.31,0.95,0.31c0.38,0,0.74-0.07,1.08-0.2s0.6-0.24,0.76-0.32L252.48,77.65z
			"/>
		<path d="M254.7,63.32v-2.98h2.71v2.98H254.7z M254.72,78.31l-0.02-12.88h2.71l0.02,12.88H254.72z"/>
		<path d="M267,78.54c-1.02,0-1.93-0.18-2.75-0.54c-0.81-0.36-1.51-0.84-2.08-1.45c-0.57-0.61-1.02-1.32-1.33-2.13
			s-0.47-1.66-0.47-2.55s0.15-1.74,0.46-2.55c0.31-0.81,0.76-1.52,1.34-2.13s1.28-1.09,2.09-1.45s1.72-0.54,2.72-0.55
			c1,0,1.91,0.18,2.72,0.54s1.51,0.84,2.09,1.45s1.03,1.32,1.34,2.13s0.47,1.66,0.47,2.55s-0.15,1.74-0.46,2.55
			c-0.31,0.81-0.76,1.52-1.34,2.13s-1.28,1.09-2.09,1.45C268.91,78.36,268,78.54,267,78.54z M263.16,71.9c0,0.62,0.1,1.2,0.3,1.72
			c0.2,0.52,0.47,0.98,0.81,1.37c0.35,0.39,0.75,0.69,1.22,0.91s0.97,0.33,1.51,0.33s1.05-0.11,1.51-0.33
			c0.47-0.22,0.87-0.53,1.22-0.93c0.34-0.39,0.61-0.85,0.81-1.38c0.2-0.52,0.29-1.1,0.29-1.72c0-0.61-0.1-1.18-0.3-1.71
			c-0.2-0.53-0.47-1-0.81-1.39c-0.35-0.39-0.75-0.7-1.22-0.92s-0.97-0.33-1.51-0.33c-0.53,0-1.02,0.12-1.49,0.35
			c-0.47,0.23-0.87,0.54-1.22,0.94c-0.34,0.39-0.62,0.86-0.82,1.39C263.26,70.72,263.15,71.29,263.16,71.9z"/>
		<path d="M288.05,78.27h-2.71l-0.01-7.21c0-1.21-0.2-2.1-0.58-2.65c-0.39-0.55-0.96-0.82-1.71-0.82c-0.39,0-0.79,0.07-1.18,0.22
			c-0.39,0.15-0.76,0.36-1.11,0.63c-0.34,0.27-0.65,0.59-0.92,0.96c-0.27,0.37-0.48,0.78-0.63,1.22l0.01,7.66h-2.71l-0.02-12.88
			h2.46v2.59c0.49-0.87,1.2-1.56,2.14-2.06s1.97-0.75,3.1-0.75c0.77,0,1.4,0.14,1.9,0.42c0.49,0.28,0.88,0.66,1.17,1.14
			c0.29,0.48,0.49,1.04,0.61,1.67s0.17,1.3,0.17,2.01L288.05,78.27z"/>
		<path d="M141.79,92.3h2.41l6.91,17.47h-2.9l-1.85-4.75l-6.75,0.01l-1.82,4.75h-2.93L141.79,92.3z M145.82,102.98L143,95.47
			l-2.9,7.51H145.82z"/>
		<path d="M158.34,110.01c-1.03,0-2.06-0.17-3.09-0.5s-1.91-0.81-2.65-1.44l1.08-1.72c0.77,0.56,1.54,0.98,2.29,1.27
			c0.76,0.29,1.53,0.43,2.31,0.43c0.8,0,1.44-0.16,1.91-0.47s0.7-0.76,0.7-1.33c0-0.54-0.26-0.94-0.79-1.18
			c-0.53-0.25-1.35-0.51-2.46-0.81c-0.8-0.21-1.49-0.42-2.07-0.61c-0.57-0.2-1.04-0.43-1.4-0.69s-0.62-0.56-0.79-0.91
			c-0.16-0.34-0.25-0.76-0.25-1.25c0-0.66,0.12-1.24,0.38-1.75c0.25-0.51,0.61-0.94,1.06-1.29s0.98-0.62,1.59-0.8
			s1.26-0.27,1.97-0.27c0.97,0,1.87,0.15,2.71,0.44c0.84,0.29,1.58,0.72,2.24,1.28l-1.15,1.63c-1.2-0.95-2.47-1.43-3.82-1.42
			c-0.69,0-1.27,0.15-1.74,0.43c-0.47,0.29-0.7,0.74-0.7,1.37c0,0.26,0.05,0.48,0.15,0.66c0.1,0.18,0.26,0.34,0.48,0.47
			c0.22,0.13,0.51,0.25,0.86,0.36s0.79,0.22,1.32,0.36c0.87,0.21,1.62,0.42,2.25,0.64c0.63,0.21,1.15,0.46,1.56,0.75
			s0.71,0.62,0.91,1.01s0.3,0.85,0.3,1.39c0,1.23-0.46,2.21-1.39,2.92C161.2,109.65,159.94,110.01,158.34,110.01z"/>
		<path d="M171.06,109.99c-1.03,0-2.06-0.17-3.09-0.5c-1.03-0.34-1.91-0.81-2.65-1.44l1.08-1.72c0.77,0.56,1.54,0.98,2.29,1.27
			c0.76,0.29,1.53,0.43,2.32,0.43c0.8,0,1.44-0.16,1.91-0.47s0.7-0.75,0.7-1.33c0-0.54-0.26-0.94-0.79-1.18
			c-0.53-0.25-1.35-0.52-2.46-0.81c-0.81-0.21-1.49-0.42-2.07-0.61c-0.57-0.2-1.04-0.43-1.4-0.69s-0.62-0.56-0.79-0.91
			c-0.16-0.34-0.25-0.76-0.25-1.26c0-0.66,0.13-1.24,0.38-1.75s0.61-0.94,1.06-1.29s0.98-0.62,1.59-0.8s1.26-0.27,1.97-0.27
			c0.97,0,1.87,0.15,2.71,0.44c0.84,0.29,1.58,0.72,2.24,1.28l-1.15,1.63c-1.2-0.95-2.47-1.43-3.82-1.42
			c-0.69,0-1.27,0.15-1.74,0.43c-0.47,0.29-0.7,0.74-0.7,1.37c0,0.26,0.05,0.48,0.15,0.66c0.1,0.18,0.26,0.34,0.48,0.47
			c0.22,0.13,0.51,0.25,0.86,0.36s0.79,0.22,1.32,0.36c0.87,0.21,1.62,0.43,2.25,0.64s1.15,0.46,1.56,0.75s0.71,0.62,0.91,1.01
			s0.3,0.85,0.3,1.39c0,1.23-0.46,2.2-1.39,2.92C173.91,109.63,172.65,109.99,171.06,109.99z"/>
		<path d="M184.8,109.98c-1.02,0-1.93-0.18-2.75-0.54c-0.81-0.36-1.51-0.84-2.08-1.45c-0.58-0.61-1.02-1.32-1.33-2.13
			s-0.47-1.66-0.47-2.55s0.15-1.74,0.46-2.55c0.31-0.81,0.76-1.52,1.34-2.13s1.28-1.09,2.09-1.46c0.81-0.36,1.72-0.54,2.72-0.55
			c1,0,1.91,0.18,2.72,0.54s1.51,0.84,2.09,1.45s1.03,1.32,1.34,2.13s0.47,1.66,0.47,2.55s-0.15,1.74-0.46,2.55
			c-0.31,0.81-0.76,1.52-1.34,2.13s-1.28,1.09-2.09,1.45C186.71,109.79,185.8,109.98,184.8,109.98z M180.95,103.33
			c0,0.62,0.1,1.2,0.3,1.72c0.2,0.52,0.47,0.98,0.81,1.37c0.35,0.39,0.75,0.69,1.22,0.91s0.97,0.33,1.51,0.33s1.05-0.11,1.51-0.33
			c0.47-0.22,0.87-0.53,1.22-0.92c0.34-0.39,0.61-0.85,0.81-1.38s0.29-1.1,0.29-1.72c0-0.61-0.1-1.18-0.3-1.71s-0.47-1-0.81-1.39
			c-0.35-0.39-0.75-0.7-1.22-0.92s-0.97-0.33-1.51-0.33c-0.53,0-1.02,0.12-1.49,0.35c-0.47,0.23-0.87,0.54-1.22,0.94
			c-0.34,0.39-0.62,0.86-0.82,1.39C181.05,102.16,180.95,102.73,180.95,103.33z"/>
		<path d="M193.51,103.27c0-0.9,0.15-1.76,0.46-2.56c0.31-0.8,0.76-1.51,1.34-2.12s1.28-1.09,2.1-1.44
			c0.82-0.35,1.74-0.53,2.76-0.53c1.33,0,2.48,0.29,3.44,0.87s1.68,1.36,2.16,2.32l-2.63,0.84c-0.31-0.54-0.73-0.96-1.26-1.27
			c-0.53-0.3-1.11-0.45-1.75-0.45c-0.54,0-1.05,0.11-1.51,0.32c-0.47,0.21-0.87,0.51-1.22,0.9c-0.34,0.39-0.61,0.84-0.81,1.37
			c-0.2,0.53-0.29,1.11-0.29,1.75c0,0.62,0.1,1.2,0.31,1.74c0.21,0.53,0.49,1,0.84,1.39c0.35,0.39,0.76,0.7,1.23,0.92
			s0.96,0.33,1.49,0.33c0.33,0,0.66-0.05,0.98-0.14c0.33-0.09,0.63-0.22,0.9-0.38c0.27-0.16,0.51-0.35,0.71-0.57
			c0.21-0.21,0.36-0.44,0.46-0.69l2.66,0.79c-0.43,0.97-1.14,1.76-2.14,2.38c-1,0.62-2.18,0.93-3.54,0.93c-1,0-1.91-0.18-2.73-0.54
			c-0.82-0.36-1.52-0.85-2.11-1.46c-0.58-0.61-1.04-1.32-1.36-2.13C193.67,105.03,193.51,104.17,193.51,103.27z"/>
		<path d="M208.49,94.71v-2.98h2.71v2.98H208.49z M208.51,109.7l-0.01-12.88h2.71l0.01,12.88H208.51z"/>
		<path d="M218.44,109.94c-0.62,0-1.2-0.1-1.74-0.31c-0.53-0.2-0.99-0.49-1.38-0.85s-0.69-0.79-0.91-1.28s-0.33-1.02-0.34-1.6
			c0-0.61,0.13-1.16,0.39-1.65s0.63-0.92,1.12-1.28c0.48-0.36,1.06-0.64,1.72-0.84s1.4-0.3,2.2-0.3c0.61,0,1.21,0.05,1.8,0.16
			s1.12,0.25,1.6,0.43v-0.89c0-0.95-0.27-1.69-0.82-2.23c-0.54-0.53-1.32-0.8-2.34-0.8c-0.69,0-1.37,0.13-2.03,0.38
			s-1.35,0.62-2.05,1.1l-0.84-1.72c1.66-1.12,3.38-1.68,5.17-1.68c1.77,0,3.15,0.45,4.14,1.35s1.48,2.2,1.48,3.89l0.01,4.65
			c0,0.57,0.24,0.87,0.71,0.89v2.31c-0.26,0.05-0.49,0.08-0.68,0.1c-0.19,0.02-0.37,0.02-0.55,0.02c-0.53,0-0.93-0.13-1.22-0.39
			c-0.29-0.26-0.46-0.6-0.53-1.01l-0.07-0.81c-0.57,0.76-1.28,1.34-2.13,1.74C220.31,109.73,219.41,109.94,218.44,109.94z
			 M219.17,107.94c0.66,0,1.28-0.12,1.86-0.36s1.04-0.57,1.37-1c0.34-0.3,0.52-0.61,0.52-0.94v-1.7c-0.46-0.18-0.95-0.32-1.47-0.42
			s-1.02-0.15-1.51-0.15c-0.97,0-1.76,0.21-2.38,0.63c-0.61,0.42-0.92,0.97-0.92,1.66c0,0.64,0.24,1.18,0.72,1.61
			C217.83,107.73,218.44,107.94,219.17,107.94z"/>
		<path d="M236.24,109c-0.34,0.16-0.82,0.35-1.43,0.56c-0.61,0.21-1.25,0.31-1.94,0.31c-0.43,0-0.83-0.06-1.21-0.17
			s-0.71-0.29-1-0.52c-0.29-0.23-0.51-0.53-0.68-0.9c-0.16-0.37-0.25-0.82-0.25-1.34l-0.01-8.05h-1.7V96.8h1.7l-0.01-4.24h2.71
			l0.01,4.24h2.81v2.09h-2.81l0.01,7.19c0.03,0.46,0.18,0.79,0.43,1c0.25,0.2,0.57,0.31,0.95,0.31c0.38,0,0.74-0.07,1.08-0.2
			s0.6-0.24,0.76-0.32L236.24,109z"/>
		<path d="M238.46,94.67v-2.98h2.71v2.98H238.46z M238.48,109.67l-0.02-12.88h2.71l0.02,12.88H238.48z"/>
		<path d="M250.76,109.9c-1.02,0-1.93-0.18-2.74-0.54c-0.81-0.36-1.51-0.84-2.08-1.45c-0.58-0.61-1.02-1.32-1.33-2.13
			s-0.47-1.66-0.47-2.55s0.15-1.74,0.46-2.55c0.31-0.81,0.76-1.52,1.34-2.13s1.28-1.09,2.09-1.46c0.81-0.36,1.72-0.54,2.72-0.55
			c1,0,1.91,0.18,2.72,0.54s1.51,0.84,2.09,1.45c0.58,0.61,1.03,1.32,1.35,2.13c0.31,0.81,0.47,1.66,0.47,2.55s-0.15,1.74-0.47,2.55
			c-0.31,0.81-0.76,1.52-1.34,2.13c-0.58,0.61-1.28,1.09-2.09,1.45C252.67,109.71,251.77,109.9,250.76,109.9z M246.92,103.25
			c0,0.62,0.1,1.2,0.3,1.72c0.2,0.52,0.47,0.98,0.81,1.37c0.35,0.39,0.75,0.69,1.22,0.91s0.97,0.33,1.51,0.33
			c0.54,0,1.05-0.11,1.51-0.33c0.47-0.22,0.87-0.53,1.22-0.92c0.34-0.39,0.61-0.85,0.81-1.38c0.2-0.52,0.29-1.1,0.29-1.72
			c0-0.61-0.1-1.18-0.3-1.71c-0.2-0.53-0.47-1-0.81-1.39c-0.35-0.39-0.75-0.7-1.22-0.92s-0.97-0.33-1.51-0.33
			c-0.53,0-1.02,0.12-1.49,0.35c-0.47,0.23-0.87,0.54-1.22,0.94c-0.34,0.39-0.62,0.86-0.82,1.39
			C247.02,102.08,246.92,102.65,246.92,103.25z"/>
		<path d="M271.81,109.63h-2.71l-0.01-7.21c0-1.21-0.2-2.1-0.58-2.65c-0.39-0.55-0.96-0.82-1.71-0.82c-0.39,0-0.79,0.07-1.18,0.22
			c-0.39,0.15-0.76,0.36-1.11,0.63c-0.34,0.27-0.65,0.59-0.92,0.96c-0.27,0.37-0.48,0.78-0.63,1.22l0.01,7.66h-2.71l-0.02-12.88
			h2.46v2.59c0.49-0.87,1.2-1.56,2.14-2.06s1.97-0.75,3.1-0.75c0.77,0,1.4,0.14,1.9,0.42c0.49,0.28,0.88,0.66,1.17,1.14
			c0.29,0.48,0.49,1.04,0.61,1.67c0.11,0.63,0.17,1.3,0.17,2.01L271.81,109.63z"/>
	</g>
	<path d="M67.42,44.03l-0.1-0.17L44.45,83.52c-2.3-3.92-3.62-8.48-3.62-13.35c0-14.6,11.88-26.48,26.48-26.48
		c9.82,0,18.4,5.37,22.97,13.33l7.29-12.62c-7.3-8.56-18.15-14-30.26-14c-21.93,0-39.77,17.84-39.77,39.77
		c0,9.9,3.65,18.96,9.65,25.93l-7.39,12.81C19.66,99.1,13.34,85.36,13.34,70.17c0-29.75,24.21-53.96,53.96-53.96
		c14.64,0,27.93,5.87,37.66,15.37l6.81-11.79C99.91,9.3,84.34,2.92,67.3,2.92c-37.08,0-67.25,30.17-67.25,67.25
		s30.17,67.25,67.25,67.25c16.99,0,32.51-6.34,44.36-16.77L67.42,44.03z M80.51,93.11c-3.89,2.25-8.4,3.54-13.21,3.54
		c-4.79,0-9.29-1.29-13.17-3.52l13.18-22.87L80.51,93.11z M40.42,116.93l7.08-12.29c5.84,3.37,12.59,5.3,19.8,5.3
		c7.23,0,14-1.95,19.84-5.34l7.09,12.29c-7.93,4.6-17.13,7.24-26.94,7.24C57.52,124.13,48.34,121.5,40.42,116.93z"/>
</g>
</svg>
