<?xml version="1.0" encoding="utf-8"?>
<!-- Generator: Adobe Illustrator 24.3.0, SVG Export Plug-In . SVG Version: 6.00 Build 0)  -->
<!DOCTYPE svg PUBLIC "-//W3C//DTD SVG 1.1//EN" "http://www.w3.org/Graphics/SVG/1.1/DTD/svg11.dtd" [
	<!ENTITY ns_extend "http://ns.adobe.com/Extensibility/1.0/">
	<!ENTITY ns_ai "http://ns.adobe.com/AdobeIllustrator/10.0/">
	<!ENTITY ns_graphs "http://ns.adobe.com/Graphs/1.0/">
	<!ENTITY ns_vars "http://ns.adobe.com/Variables/1.0/">
	<!ENTITY ns_imrep "http://ns.adobe.com/ImageReplacement/1.0/">
	<!ENTITY ns_sfw "http://ns.adobe.com/SaveForWeb/1.0/">
	<!ENTITY ns_custom "http://ns.adobe.com/GenericCustomNamespace/1.0/">
	<!ENTITY ns_adobe_xpath "http://ns.adobe.com/XPath/1.0/">
]>
<svg version="1.1" id="Layer_1" xmlns:x="&ns_extend;" xmlns:i="&ns_ai;" xmlns:graph="&ns_graphs;"
	 xmlns="http://www.w3.org/2000/svg" xmlns:xlink="http://www.w3.org/1999/xlink" x="0px" y="0px" width="158.3px" height="196.2px"
	 viewBox="0 0 158.3 196.2" style="enable-background:new 0 0 158.3 196.2;" xml:space="preserve">
<style type="text/css">
	.st0{fill:#004F6E;}
	.st1{fill:#6D6E71;}
	.st2{fill:#818285;}
	.st3{fill:#A7A9AC;}
	.st4{fill:#939598;}
</style>
<metadata>
	<sfw  xmlns="&ns_sfw;">
		<slices></slices>
		<sliceSourceBounds  bottomLeftOrigin="true" height="175.1" width="152.9" x="883" y="474.9"></sliceSourceBounds>
	</sfw>
</metadata>
<g>
	<path class="st0" d="M85.9,62.8h-1.6v-5.7c0-0.8,0.3-1.5,0.8-1.5c0.4,0,0.8,0.7,0.8,1.5V62.8z M83.1,62.8h-1.6v-5.7
		c0-0.8,0.4-1.5,0.8-1.5c0.4,0,0.8,0.7,0.8,1.5V62.8z M80.2,62.8h-1.6v-5.7c0-0.8,0.3-1.5,0.8-1.5c0.4,0,0.8,0.7,0.8,1.5V62.8z
		 M77.4,62.8h-1.6v-5.7c0-0.8,0.3-1.5,0.8-1.5c0.4,0,0.8,0.7,0.8,1.5V62.8z M74.6,62.8h-1.6v-5.7c0-0.8,0.3-1.5,0.8-1.5
		c0.4,0,0.8,0.7,0.8,1.5V62.8z M79.5,42.9c1.8,0,3.3,1.5,3.3,3.3c0,1.8-1.5,3.3-3.3,3.3c-1.8,0-3.2-1.5-3.2-3.3
		C76.2,44.4,77.7,42.9,79.5,42.9 M88.6,43.6l-0.2-0.6l-0.2,0.6L87,48.3v-8.2l-6.2-23.9h-1V13h3.9v-1.9h-4.4V13h0.1v3.2h-0.9L72,39.9
		v8.4l-1.2-4.7l-0.2-0.6l-0.2,0.6L69,49v2h0v2h0v54.9c3.4-0.1,6.8-0.2,10.3-0.2c3.6,0,7.2,0.1,10.7,0.2V53.1V53v-2v-2L88.6,43.6z"/>
	<path class="st0" d="M79.3,114.2c31.1,0,58.8,4,76.5,10.2c-6.3-8.2-38.1-14.5-76.5-14.5c-38.3,0-70.2,6.3-76.5,14.5
		C20.5,118.2,48.2,114.2,79.3,114.2"/>
	<path class="st0" d="M37.1,130c-5.3,0-8.5,0.6-9.4,1.7c-0.9,1.2-1.4,5.2-1.4,12.1c0,5.1,0.5,8.2,1.6,9.2c1.1,1,4.2,1.6,9.3,1.6
		c4.9,0,7.9-0.6,8.9-1.8c1-1.2,1.5-4.7,1.5-10.7c0-6-0.5-9.5-1.4-10.6C45.3,130.5,42.3,130,37.1,130 M37.7,124.2
		c7.6,0,12.5,1.1,14.7,3.2c2.2,2.2,3.3,7,3.3,14.4c0,8.2-1.1,13.3-3.3,15.4c-2.2,2.1-7.5,3.2-16,3.2c-7.6,0-12.5-1-14.8-3.1
		c-2.2-2.1-3.3-6.7-3.3-13.8c0-8.5,1.1-13.8,3.3-16C23.8,125.3,29.2,124.2,37.7,124.2"/>
	<path class="st0" d="M88.2,147.4h8v1.2c0,5-1.1,8.2-3.2,9.6c-2.1,1.5-6.8,2.2-14.1,2.2c-8.3,0-13.4-1.1-15.3-3.4
		c-1.9-2.3-2.9-8.4-2.9-18.4c0-5.9,1.3-9.7,3.9-11.6c2.6-1.9,8-2.8,16.2-2.8c6,0,10,0.8,12,2.3c2,1.5,3,4.5,3,9.1l0,0.8h-8v-0.9
		c0-2.3-0.5-3.8-1.6-4.5c-1-0.7-3.4-1-7.1-1c-4.9,0-7.9,0.5-8.9,1.5c-1,1-1.5,4.1-1.5,9.1c0,6.8,0.4,10.9,1.3,12.1
		c0.9,1.3,3.8,1.9,8.6,1.9c4,0,6.5-0.3,7.7-1c1.2-0.7,1.8-2.2,1.8-4.6L88.2,147.4z"/>
	<path class="st0" d="M127.3,148.3l-7.2-18.6l-7.1,18.6H127.3z M129.1,153.3H111l-2.6,6.8H100l13.9-35.6h11.9l14.2,35.6h-8.3
		L129.1,153.3z"/>
	<path class="st1" d="M17.2,168c-0.9,0-1.5,0.1-1.6,0.4c-0.2,0.2-0.2,1.1-0.2,2.5c0,1.1,0.1,1.7,0.3,1.9c0.2,0.2,0.7,0.3,1.6,0.3
		c0.9,0,1.4-0.1,1.6-0.4c0.2-0.2,0.3-1,0.3-2.2c0-1.2-0.1-2-0.2-2.2C18.6,168.1,18.1,168,17.2,168 M17.3,166.8
		c1.3,0,2.2,0.2,2.6,0.7c0.4,0.4,0.6,1.4,0.6,3c0,1.7-0.2,2.8-0.6,3.2c-0.4,0.4-1.3,0.7-2.8,0.7c-1.3,0-2.2-0.2-2.6-0.7
		c-0.4-0.4-0.6-1.4-0.6-2.9c0-1.8,0.2-2.9,0.6-3.3C14.9,167,15.8,166.8,17.3,166.8"/>
	<polygon class="st1" points="24.8,168.1 24.8,174.2 23.4,174.2 23.4,168.1 21.3,168.1 21.3,166.9 27,166.9 27,168.1 	"/>
	<polygon class="st1" points="31.1,168.1 31.1,174.2 29.7,174.2 29.7,168.1 27.6,168.1 27.6,166.9 33.3,166.9 33.3,168.1 	"/>
	<path class="st1" d="M38.6,171.8l-1.3-3.8l-1.3,3.8H38.6z M38.9,172.8h-3.2l-0.5,1.4h-1.5l2.4-7.4h2.1l2.5,7.4h-1.5L38.9,172.8z"/>
	<path class="st1" d="M52.2,166.9l-2,7.4h-2.1l-1-3.8c-0.1-0.3-0.2-0.8-0.3-1.4l-0.1-0.5h0l-0.1,0.5l-0.1,0.5
		c-0.1,0.3-0.2,0.6-0.2,0.9l-1.1,3.8h-2l-1.9-7.4h1.4l1.1,4c0.1,0.3,0.1,0.6,0.2,1.1l0.1,0.5l0.1,0.5h0c0.1-0.2,0.1-0.4,0.1-0.5
		l0.1-0.5c0.1-0.3,0.2-0.6,0.3-1.1l1.1-4h1.6l1.1,4c0.1,0.3,0.2,0.7,0.3,1.1l0.1,0.5l0.1,0.5h0l0.1-0.5l0.1-0.5
		c0.1-0.4,0.2-0.8,0.3-1.1l1.1-4H52.2z"/>
	<path class="st1" d="M57.5,171.8l-1.3-3.8l-1.3,3.8H57.5z M57.8,172.8h-3.2l-0.5,1.4h-1.5l2.5-7.4h2.1l2.5,7.4h-1.4L57.8,172.8z"/>
	<path class="st1" d="M68.6,171.6H70v0.3c0,1-0.2,1.7-0.6,2c-0.4,0.3-1.2,0.5-2.5,0.5c-1.5,0-2.3-0.2-2.7-0.7
		c-0.3-0.5-0.5-1.7-0.5-3.8c0-1.2,0.2-2,0.7-2.4c0.5-0.4,1.4-0.6,2.8-0.6c1,0,1.8,0.2,2.1,0.5c0.4,0.3,0.5,0.9,0.5,1.9l0,0.2h-1.4
		v-0.2c0-0.5-0.1-0.8-0.3-0.9c-0.2-0.1-0.6-0.2-1.2-0.2c-0.9,0-1.4,0.1-1.6,0.3c-0.2,0.2-0.3,0.8-0.3,1.9c0,1.4,0.1,2.2,0.2,2.5
		c0.2,0.3,0.7,0.4,1.5,0.4c0.7,0,1.1-0.1,1.4-0.2c0.2-0.1,0.3-0.5,0.3-1L68.6,171.6z"/>
	<path class="st1" d="M74.2,168c-0.9,0-1.5,0.1-1.6,0.4c-0.2,0.2-0.2,1.1-0.2,2.5c0,1.1,0.1,1.7,0.3,1.9c0.2,0.2,0.7,0.3,1.6,0.3
		c0.9,0,1.4-0.1,1.6-0.4c0.2-0.2,0.3-1,0.3-2.2c0-1.2-0.1-2-0.2-2.2C75.7,168.1,75.1,168,74.2,168 M74.3,166.8
		c1.3,0,2.2,0.2,2.6,0.7c0.4,0.4,0.6,1.4,0.6,3c0,1.7-0.2,2.8-0.6,3.2c-0.4,0.4-1.3,0.7-2.8,0.7c-1.3,0-2.2-0.2-2.6-0.7
		c-0.4-0.4-0.6-1.4-0.6-2.9c0-1.8,0.2-2.9,0.6-3.3C71.9,167,72.8,166.8,74.3,166.8"/>
	<path class="st1" d="M85.7,166.9v7.4h-2.4l-2.1-4c-0.1-0.2-0.3-0.6-0.5-1.1l-0.2-0.5l-0.2-0.5h-0.1l0,0.5l0,0.5l0,1v4.2h-1.4v-7.4
		h2.4l1.9,3.7c0.2,0.3,0.4,0.7,0.6,1.2l0.3,0.6l0.3,0.6h0l0-0.5l0-0.5l0-1v-4.2H85.7z"/>
	<path class="st1" d="M92.9,169h-1.4c0-0.1,0-0.1,0-0.1c0-0.4-0.1-0.7-0.3-0.8c-0.2-0.1-0.5-0.2-1.1-0.2c-0.7,0-1.1,0.1-1.3,0.2
		c-0.2,0.1-0.3,0.4-0.3,0.8c0,0.5,0.1,0.7,0.2,0.8c0.2,0.1,0.7,0.2,1.6,0.2c1.1,0.1,1.8,0.2,2.1,0.5c0.3,0.3,0.5,0.8,0.5,1.6
		c0,1-0.2,1.6-0.6,1.9c-0.4,0.3-1.2,0.4-2.5,0.4c-1.2,0-1.9-0.1-2.3-0.4c-0.4-0.3-0.6-0.8-0.6-1.7l0-0.3h1.4l0,0.2
		c0,0.5,0.1,0.8,0.3,0.9c0.2,0.1,0.7,0.2,1.5,0.2c0.6,0,1-0.1,1.2-0.2c0.2-0.1,0.3-0.4,0.3-0.9c0-0.4-0.1-0.6-0.2-0.7
		c-0.1-0.1-0.4-0.2-0.9-0.2l-0.8,0c-1.2-0.1-1.9-0.2-2.2-0.5c-0.3-0.3-0.5-0.8-0.5-1.6c0-0.9,0.2-1.4,0.6-1.7
		c0.4-0.3,1.2-0.4,2.3-0.4c1.1,0,1.9,0.1,2.2,0.4c0.4,0.3,0.6,0.8,0.6,1.5V169z"/>
	<polygon class="st1" points="97.5,168.1 97.5,174.2 96.1,174.2 96.1,168.1 93.9,168.1 93.9,166.9 99.7,166.9 99.7,168.1 	"/>
	<path class="st1" d="M102.2,170.6h2c0.5,0,0.8-0.1,1-0.3c0.2-0.2,0.2-0.5,0.2-1c0-0.5-0.1-0.9-0.2-1c-0.1-0.2-0.4-0.2-0.9-0.2h-2.1
		V170.6z M100.8,174.2v-7.4h3.6c0.9,0,1.5,0.2,1.9,0.5c0.3,0.3,0.5,0.9,0.5,1.7c0,0.7-0.1,1.3-0.3,1.5c-0.2,0.3-0.5,0.5-1,0.6v0
		c0.8,0.1,1.2,0.5,1.2,1.4v1.6h-1.4v-1.3c0-0.8-0.4-1.1-1.1-1.1h-2v2.5H100.8z"/>
	<path class="st1" d="M113.1,166.9h1.4v4.9c0,1-0.2,1.7-0.6,2c-0.4,0.3-1.2,0.5-2.4,0.5c-1.3,0-2.1-0.2-2.5-0.5
		c-0.4-0.3-0.6-1-0.6-2v-5h1.4v5c0,0.5,0.1,0.9,0.3,1c0.2,0.1,0.7,0.2,1.4,0.2c0.7,0,1.2-0.1,1.4-0.2c0.2-0.1,0.3-0.5,0.3-1.1V166.9
		z"/>
	<path class="st1" d="M120.8,171.6h1.4v0.3c0,1-0.2,1.7-0.6,2c-0.4,0.3-1.2,0.5-2.5,0.5c-1.5,0-2.3-0.2-2.7-0.7
		c-0.3-0.5-0.5-1.7-0.5-3.8c0-1.2,0.2-2,0.7-2.4c0.5-0.4,1.4-0.6,2.8-0.6c1.1,0,1.8,0.2,2.1,0.5c0.4,0.3,0.5,0.9,0.5,1.9l0,0.2h-1.4
		v-0.2c0-0.5-0.1-0.8-0.3-0.9c-0.2-0.1-0.6-0.2-1.2-0.2c-0.9,0-1.4,0.1-1.6,0.3c-0.2,0.2-0.3,0.8-0.3,1.9c0,1.4,0.1,2.2,0.2,2.5
		c0.2,0.3,0.7,0.4,1.5,0.4c0.7,0,1.1-0.1,1.4-0.2c0.2-0.1,0.3-0.5,0.3-1L120.8,171.6z"/>
	<polygon class="st1" points="126.4,168.1 126.4,174.2 125,174.2 125,168.1 122.9,168.1 122.9,166.9 128.6,166.9 128.6,168.1 	"/>
	<rect x="129.8" y="166.9" class="st1" width="1.4" height="7.4"/>
	<path class="st1" d="M135.9,168c-0.9,0-1.5,0.1-1.6,0.4c-0.2,0.2-0.2,1.1-0.2,2.5c0,1.1,0.1,1.7,0.3,1.9c0.2,0.2,0.7,0.3,1.6,0.3
		c0.9,0,1.4-0.1,1.6-0.4c0.2-0.2,0.3-1,0.3-2.2c0-1.2-0.1-2-0.2-2.2C137.3,168.1,136.8,168,135.9,168 M136,166.8
		c1.3,0,2.2,0.2,2.6,0.7c0.4,0.4,0.6,1.4,0.6,3c0,1.7-0.2,2.8-0.6,3.2c-0.4,0.4-1.3,0.7-2.8,0.7c-1.3,0-2.2-0.2-2.6-0.7
		c-0.4-0.4-0.6-1.4-0.6-2.9c0-1.8,0.2-2.9,0.6-3.3C133.6,167,134.5,166.8,136,166.8"/>
	<path class="st1" d="M147.4,166.9v7.4H145l-2.1-4c-0.1-0.2-0.3-0.6-0.5-1.1l-0.2-0.5l-0.2-0.5h-0.1l0,0.5l0,0.5l0,1v4.2h-1.4v-7.4
		h2.4l1.9,3.7c0.2,0.3,0.4,0.7,0.6,1.2l0.3,0.6l0.3,0.6h0l0-0.5l0-0.5l0-1v-4.2H147.4z"/>
	<path class="st1" d="M49.5,183.7l-1.3-3.8l-1.3,3.8H49.5z M49.8,184.7h-3.2l-0.5,1.4h-1.5l2.4-7.4h2.1l2.5,7.4h-1.5L49.8,184.7z"/>
	<path class="st1" d="M58.3,180.9h-1.4c0-0.1,0-0.1,0-0.2c0-0.4-0.1-0.7-0.3-0.8c-0.2-0.1-0.5-0.2-1.1-0.2c-0.7,0-1.1,0.1-1.3,0.2
		c-0.2,0.1-0.3,0.4-0.3,0.8c0,0.5,0.1,0.7,0.2,0.8c0.2,0.1,0.7,0.2,1.6,0.2c1.1,0.1,1.8,0.2,2.1,0.5c0.3,0.3,0.5,0.8,0.5,1.6
		c0,1-0.2,1.6-0.6,1.9c-0.4,0.3-1.2,0.4-2.5,0.4c-1.2,0-1.9-0.1-2.3-0.4c-0.4-0.3-0.6-0.8-0.6-1.7l0-0.3h1.4l0,0.2
		c0,0.5,0.1,0.8,0.3,0.9c0.2,0.1,0.7,0.2,1.5,0.2c0.6,0,1-0.1,1.2-0.2c0.2-0.1,0.3-0.4,0.3-0.9c0-0.4-0.1-0.6-0.2-0.7
		c-0.1-0.1-0.4-0.2-0.9-0.2l-0.8,0c-1.2-0.1-1.9-0.2-2.2-0.5c-0.3-0.3-0.5-0.8-0.5-1.6c0-0.9,0.2-1.4,0.6-1.7
		c0.4-0.3,1.2-0.4,2.3-0.4c1.1,0,1.9,0.1,2.2,0.4c0.4,0.3,0.6,0.8,0.6,1.5V180.9z"/>
	<path class="st1" d="M65.3,180.9H64c0-0.1,0-0.1,0-0.2c0-0.4-0.1-0.7-0.3-0.8c-0.2-0.1-0.5-0.2-1.1-0.2c-0.7,0-1.1,0.1-1.3,0.2
		c-0.2,0.1-0.3,0.4-0.3,0.8c0,0.5,0.1,0.7,0.2,0.8c0.2,0.1,0.7,0.2,1.6,0.2c1.1,0.1,1.8,0.2,2.1,0.5c0.3,0.3,0.5,0.8,0.5,1.6
		c0,1-0.2,1.6-0.6,1.9c-0.4,0.3-1.2,0.4-2.5,0.4c-1.2,0-1.9-0.1-2.3-0.4c-0.4-0.3-0.6-0.8-0.6-1.7l0-0.3h1.4l0,0.2
		c0,0.5,0.1,0.8,0.3,0.9c0.2,0.1,0.7,0.2,1.5,0.2c0.6,0,1-0.1,1.2-0.2c0.2-0.1,0.3-0.4,0.3-0.9c0-0.4-0.1-0.6-0.2-0.7
		c-0.1-0.1-0.4-0.2-0.9-0.2l-0.8,0c-1.2-0.1-1.9-0.2-2.2-0.5c-0.3-0.3-0.5-0.8-0.5-1.6c0-0.9,0.2-1.4,0.6-1.7
		c0.4-0.3,1.2-0.4,2.3-0.4c1.1,0,1.9,0.1,2.2,0.4c0.4,0.3,0.6,0.8,0.6,1.5V180.9z"/>
	<path class="st1" d="M69.9,179.9c-0.9,0-1.5,0.1-1.6,0.4c-0.2,0.2-0.2,1.1-0.2,2.5c0,1.1,0.1,1.7,0.3,1.9c0.2,0.2,0.7,0.3,1.6,0.3
		c0.9,0,1.4-0.1,1.6-0.4c0.2-0.2,0.3-1,0.3-2.2c0-1.2-0.1-2-0.2-2.2C71.3,180,70.8,179.9,69.9,179.9 M70,178.7
		c1.3,0,2.2,0.2,2.6,0.7c0.4,0.4,0.6,1.4,0.6,3c0,1.7-0.2,2.8-0.6,3.2c-0.4,0.4-1.3,0.7-2.8,0.7c-1.3,0-2.2-0.2-2.6-0.6
		c-0.4-0.4-0.6-1.4-0.6-2.9c0-1.8,0.2-2.9,0.6-3.3C67.5,178.9,68.5,178.7,70,178.7"/>
	<path class="st1" d="M79.1,183.5h1.4v0.3c0,1-0.2,1.7-0.6,2c-0.4,0.3-1.2,0.4-2.5,0.4c-1.5,0-2.3-0.2-2.7-0.7
		c-0.3-0.5-0.5-1.7-0.5-3.8c0-1.2,0.2-2,0.7-2.4c0.5-0.4,1.4-0.6,2.8-0.6c1.1,0,1.8,0.2,2.1,0.5c0.4,0.3,0.5,0.9,0.5,1.9l0,0.2H79
		V181c0-0.5-0.1-0.8-0.3-0.9c-0.2-0.1-0.6-0.2-1.2-0.2c-0.9,0-1.4,0.1-1.6,0.3c-0.2,0.2-0.3,0.8-0.3,1.9c0,1.4,0.1,2.2,0.2,2.5
		c0.2,0.3,0.7,0.4,1.5,0.4c0.7,0,1.1-0.1,1.4-0.2c0.2-0.1,0.3-0.5,0.3-0.9L79.1,183.5z"/>
	<rect x="81.8" y="178.8" class="st1" width="1.4" height="7.4"/>
	<path class="st1" d="M89.1,183.7l-1.3-3.8l-1.3,3.8H89.1z M89.4,184.7h-3.2l-0.5,1.4h-1.5l2.5-7.4h2.1l2.5,7.4h-1.5L89.4,184.7z"/>
	<polygon class="st1" points="95.3,180 95.3,186.1 93.9,186.1 93.9,180 91.8,180 91.8,178.8 97.5,178.8 97.5,180 	"/>
	<rect x="98.7" y="178.8" class="st1" width="1.4" height="7.4"/>
	<path class="st1" d="M104.8,179.9c-0.9,0-1.5,0.1-1.6,0.4c-0.2,0.2-0.2,1.1-0.2,2.5c0,1.1,0.1,1.7,0.3,1.9c0.2,0.2,0.7,0.3,1.6,0.3
		c0.9,0,1.4-0.1,1.6-0.4c0.2-0.2,0.3-1,0.3-2.2c0-1.2-0.1-2-0.2-2.2C106.2,180,105.7,179.9,104.8,179.9 M104.9,178.7
		c1.3,0,2.2,0.2,2.6,0.7c0.4,0.4,0.6,1.4,0.6,3c0,1.7-0.2,2.8-0.6,3.2c-0.4,0.4-1.3,0.7-2.8,0.7c-1.3,0-2.2-0.2-2.6-0.6
		c-0.4-0.4-0.6-1.4-0.6-2.9c0-1.8,0.2-2.9,0.6-3.3C102.5,178.9,103.4,178.7,104.9,178.7"/>
	<path class="st1" d="M116.3,178.8v7.4h-2.4l-2.1-4c-0.1-0.2-0.3-0.6-0.5-1.1l-0.2-0.5l-0.2-0.5h-0.1l0,0.5l0,0.5l0,1v4.2h-1.4v-7.4
		h2.4l1.9,3.7c0.2,0.3,0.4,0.7,0.6,1.2l0.3,0.6l0.3,0.6h0l0-0.5l0-0.5l0-0.9v-4.2H116.3z"/>
	<path class="st2" d="M50.4,108.9V82.1l-8-3.6v31.3C45,109.5,47.6,109.2,50.4,108.9"/>
	<path class="st3" d="M24.6,112.8V91.5l-8-3.6v27.3C18.9,114.3,21.6,113.5,24.6,112.8"/>
	<path class="st4" d="M37.5,110.4V71.7l-8-3.6v43.7C32,111.3,34.7,110.8,37.5,110.4"/>
	<path class="st1" d="M63.3,108.1V71.2l-8-3.6v40.9C57.9,108.3,60.6,108.2,63.3,108.1"/>
	<path class="st1" d="M103.2,108.5V67.6l-8,3.6v36.8C98,108.2,100.6,108.3,103.2,108.5"/>
	<path class="st2" d="M116.1,109.8V78.5l-8,3.6v26.8C110.9,109.2,113.6,109.5,116.1,109.8"/>
	<path class="st4" d="M129,111.8V68.1l-8,3.6v38.7C123.8,110.8,126.5,111.3,129,111.8"/>
	<path class="st3" d="M141.9,115.1V87.8l-8,3.6v21.4C136.9,113.5,139.6,114.3,141.9,115.1"/>
</g>
</svg>
