<svg width="275" height="50" viewBox="0 0 275 50" fill="none" xmlns="http://www.w3.org/2000/svg">
<path d="M30.8879 23.4632V20.1095L33.6993 18.439L16.8434 8.37793V15.0853L30.8879 23.4632Z" fill="#15838A"/>
<path d="M30.8879 49.1665V36.8781L33.6993 35.1949L16.8434 25.1465V49.1665H30.8879Z" fill="#0D333E"/>
<path d="M30.8879 31.8406V28.4869L33.6993 26.8164L16.8434 16.7554V23.4627L30.8879 31.8406Z" fill="#02426D"/>
<path d="M30.8879 15.0853V11.7316L33.6993 10.0611L16.8434 0V6.70738L30.8879 15.0853Z" fill="#6B9592"/>
<path d="M2.79872 28.4869V31.8406L16.8432 23.4627V16.7554L0 26.8164L2.79872 28.4869Z" fill="#257198"/>
<path d="M2.79872 11.7316V15.0853L16.8432 6.70738V0L0 10.0611L2.79872 11.7316Z" fill="#8FC9C5"/>
<path d="M2.79872 20.1095V23.4632L16.8432 15.0853V8.37793L0 18.439L2.79872 20.1095Z" fill="#009CA8"/>
<path d="M2.79872 36.878V49.1664H16.8432V25.1338L0 35.1949L2.79872 36.878Z" fill="#02426D"/>
<path d="M59.7273 48.2807C59.2312 48.2807 58.7732 47.8757 58.7732 47.4581V15.984H49.1685C48.5833 15.984 48.2144 15.5537 48.2144 15.1614V8.79575C48.2144 8.40343 48.5833 7.97314 49.1685 7.97314H78.0971C78.6823 7.97314 79.0512 8.40343 79.0512 8.79575V15.1614C79.0512 15.5664 78.6823 15.984 78.0971 15.984H68.5051V47.4454C68.5051 47.8757 68.0471 48.268 67.551 48.268H59.7273V48.2807Z" fill="#02426D"/>
<path d="M111.682 48.2807C110.639 48.2807 110.193 48.0023 109.659 46.9646L107.242 42.2061H89.1776L86.7605 47.0279C86.5443 47.4961 85.9845 48.2681 84.6615 48.2681H77.4993C77.1049 48.2681 76.7869 48.1289 76.6342 47.8758C76.507 47.6733 76.507 47.4202 76.6342 47.1671L97.0267 7.87198C97.1794 7.59356 97.5483 7.37842 97.8791 7.37842H98.5279C98.8586 7.37842 99.2276 7.59356 99.3929 7.87198L119.785 47.1671C119.913 47.4202 119.913 47.6733 119.785 47.8758C119.633 48.1289 119.315 48.2681 118.92 48.2681H111.695L111.682 48.2807ZM92.7905 34.828H103.616L98.4388 24.7417C98.4007 24.6657 98.3243 24.6278 98.248 24.6278H98.0954C98.019 24.6278 97.9427 24.6784 97.9045 24.7417L92.7905 34.8154V34.828Z" fill="#02426D"/>
<path d="M149.439 48.2807C148.994 48.2807 148.714 48.0276 148.638 47.901L139.898 32.2842H134.949V47.4581C134.949 47.8884 134.479 48.2807 133.995 48.2807H126.248C125.663 48.2807 125.294 47.8504 125.294 47.4581V8.79575C125.294 8.39077 125.663 7.97314 126.248 7.97314H145.725C153.396 7.97314 159.642 13.5036 159.642 20.2995C159.642 25.2731 156.016 29.6645 150.19 31.7653L149.872 31.8792L158.968 47.0025C159.133 47.2809 159.146 47.5846 159.006 47.8377C158.853 48.1161 158.522 48.268 158.102 48.268H149.439V48.2807ZM134.949 25.425H144.872C147.658 25.425 150.101 23.109 150.101 20.4767C150.101 17.8444 147.709 15.7562 144.872 15.7562H134.949V25.425Z" fill="#02426D"/>
<path d="M168.585 48.2807C168.089 48.2807 167.631 47.8757 167.631 47.4581V8.79575C167.631 8.36546 168.089 7.97314 168.585 7.97314H176.409C176.905 7.97314 177.363 8.37812 177.363 8.79575V47.4454C177.363 47.8757 176.905 48.268 176.409 48.268H168.585V48.2807Z" fill="#02426D"/>
<path d="M206.94 48.8629C200.707 48.8629 194.88 46.7242 190.542 42.839C186.217 38.9537 183.825 33.7524 183.825 28.184C183.825 22.6156 186.217 17.3889 190.542 13.4784C194.893 9.55519 200.707 7.39111 206.94 7.39111C213.174 7.39111 219 9.55519 223.364 13.4784C227.714 17.3889 230.106 22.6156 230.106 28.184C230.106 33.7524 227.714 38.9537 223.364 42.839C219.013 46.7242 213.174 48.8629 206.94 48.8629ZM206.94 16.1613C199.638 16.1613 193.697 21.5525 193.697 28.184C193.697 34.8154 199.638 40.0801 206.94 40.0801C214.242 40.0801 220.247 34.7395 220.247 28.184C220.247 21.6285 214.28 16.1613 206.94 16.1613Z" fill="#02426D"/>
<path d="M272.43 48.8629C272.163 48.8629 271.934 48.7744 271.769 48.6478L246.771 26.0199C246.491 25.7794 246.059 25.9693 246.059 26.3363V47.4582C246.059 47.8632 245.69 48.2808 245.104 48.2808H237.357C236.861 48.2808 236.403 47.8758 236.403 47.4582L236.339 8.16309C236.339 7.75812 236.785 7.39111 237.293 7.39111H239.087C239.634 7.39111 240.169 7.5936 240.588 7.96061L264.568 29.2091C264.835 29.4495 265.268 29.2597 265.268 28.8927V8.79587C265.268 8.39089 265.637 7.97326 266.222 7.97326H274.046C274.542 7.97326 275 8.37824 275 8.79587V48.091C275 48.4959 274.555 48.8629 274.046 48.8629H272.443H272.43Z" fill="#02426D"/>
</svg>
